<?xml version="1.0" standalone="no"?>
<!DOCTYPE svg PUBLIC "-//W3C//DTD SVG 20010904//EN"
 "http://www.w3.org/TR/2001/REC-SVG-20010904/DTD/svg10.dtd">
<svg version="1.0" xmlns="http://www.w3.org/2000/svg"
 width="180.000000pt" height="180.000000pt" viewBox="0 0 180.000000 180.000000"
 preserveAspectRatio="xMidYMid meet">
<metadata>
Created by potrace 1.14, written by Peter Selinger 2001-2017
</metadata>
<g transform="translate(0.000000,180.000000) scale(0.100000,-0.100000)"
fill="#000000" stroke="none">
<path d="M546 1785 c-3 -8 -16 -15 -30 -15 -14 0 -28 -5 -31 -11 -4 -6 0 -9
11 -7 13 2 18 -2 16 -14 -2 -15 1 -14 20 5 45 46 52 57 35 57 -8 0 -17 -7 -21
-15z"/>
<path d="M710 1790 c0 -5 -7 -10 -15 -10 -8 0 -30 -14 -49 -31 -38 -32 -73
-37 -41 -6 19 20 14 33 -10 24 -8 -4 -15 -18 -15 -32 0 -14 -4 -25 -10 -25 -5
0 -10 4 -10 10 0 5 -21 -5 -47 -22 -30 -20 -61 -33 -86 -34 -21 -1 -44 -7 -50
-13 -8 -8 -3 -10 21 -5 19 4 32 2 32 -3 0 -6 -24 -13 -52 -16 -60 -6 -108 -25
-108 -42 0 -6 -11 -17 -24 -23 -13 -5 -26 -20 -29 -32 -5 -20 -4 -20 11 -7 33
28 122 64 122 49 0 -4 -22 -20 -48 -36 -35 -22 -43 -31 -29 -34 26 -6 16 -23
-28 -48 -22 -12 -41 -26 -43 -32 -2 -6 -9 -9 -15 -6 -7 2 -21 -2 -32 -10 -19
-15 -19 -15 3 -9 22 5 31 -10 12 -22 -12 -8 -13 -25 -1 -25 5 0 16 15 24 33
15 30 57 67 57 49 0 -19 -82 -122 -98 -123 -10 0 -12 -3 -5 -6 10 -3 9 -11 -2
-33 -8 -16 -15 -37 -15 -46 0 -10 -8 -26 -17 -36 -16 -18 -16 -18 0 -12 12 4
17 1 17 -10 0 -9 -4 -16 -9 -16 -5 0 -11 -9 -14 -21 -5 -20 -5 -20 14 -3 17
15 19 15 19 1 0 -9 -9 -21 -20 -27 -11 -6 -20 -18 -20 -27 0 -15 2 -15 18 0
27 25 30 21 21 -25 -4 -24 -9 -61 -9 -83 -1 -26 -4 -34 -8 -23 -7 16 -10 15
-36 -7 -57 -49 -65 -20 -8 33 36 34 36 35 10 29 -22 -6 -28 -4 -28 9 0 16 -1
16 -18 1 -10 -10 -24 -17 -30 -17 -7 0 -12 -7 -12 -15 0 -14 3 -13 25 1 14 9
28 14 31 11 9 -9 -27 -57 -42 -57 -31 0 -11 -19 26 -25 25 -4 40 -12 40 -21 0
-8 -4 -14 -10 -14 -5 0 -10 -10 -10 -22 0 -12 -8 -30 -18 -41 -16 -20 -16 -20
8 -13 14 4 31 8 38 8 15 2 16 18 1 18 -5 0 -7 5 -4 11 4 5 12 8 18 6 7 -2 21
3 31 12 18 15 19 15 14 -6 -4 -15 -1 -23 11 -26 11 -3 7 -6 -11 -11 -16 -5
-28 -14 -28 -22 0 -8 -7 -14 -15 -14 -18 0 -20 -17 -3 -22 21 -7 -3 -28 -32
-28 -16 0 -32 -4 -35 -10 -10 -17 -25 -11 -25 10 0 16 7 20 30 20 24 0 30 4
30 22 0 17 -3 19 -12 10 -7 -7 -23 -12 -35 -12 -22 0 -24 -4 -21 -44 l3 -44
23 19 c17 13 29 16 47 9 19 -7 25 -4 38 23 9 18 18 40 21 50 3 10 10 16 15 13
5 -4 1 -23 -9 -43 -10 -20 -16 -43 -13 -50 6 -15 33 -18 33 -3 0 6 -5 10 -11
10 -5 0 -7 4 -4 10 8 13 65 13 65 0 0 -5 -7 -10 -15 -10 -9 0 -15 -9 -15 -22
0 -20 1 -20 19 -4 18 17 20 17 30 -2 8 -16 4 -25 -23 -51 -24 -23 -35 -29 -39
-19 -4 9 -10 7 -22 -9 -9 -13 -22 -23 -30 -23 -9 0 -12 -6 -9 -15 4 -9 -6 -27
-25 -44 -17 -16 -31 -35 -31 -42 0 -8 7 -6 20 6 17 15 20 16 20 3 0 -17 -26
-31 -41 -22 -5 3 -19 -2 -31 -10 -23 -16 -19 -20 17 -16 19 2 19 1 2 -18 -10
-11 -14 -23 -9 -26 11 -6 25 9 35 37 4 9 10 17 16 17 15 0 -16 -75 -32 -78
-38 -8 -65 -112 -29 -112 16 -1 15 -2 0 -11 -10 -5 -18 -17 -18 -26 0 -27 36
13 46 50 l8 32 4 -35 c3 -29 -2 -39 -27 -62 -19 -17 -31 -37 -31 -53 0 -16 4
-24 11 -20 6 4 8 14 4 24 -5 13 -4 14 6 4 14 -14 40 -18 37 -5 -2 11 13 42 21
42 13 0 8 -33 -7 -51 -9 -10 -20 -16 -24 -13 -21 13 -48 -29 -48 -73 0 -53 20
-66 54 -34 12 11 27 21 33 21 6 0 13 6 16 13 2 6 8 9 12 5 10 -10 -13 -38 -31
-38 -7 0 -16 -4 -19 -10 -4 -7 92 -10 282 -10 l288 0 -32 21 c-43 27 -101 34
-159 20 -25 -7 -48 -10 -50 -8 -10 9 211 287 228 287 3 0 -2 -23 -13 -50 -10
-28 -19 -63 -19 -78 0 -32 21 -103 46 -154 l18 -38 69 0 c60 0 73 3 100 26 29
25 35 26 111 20 110 -7 108 -7 103 -28 -5 -17 11 -18 379 -18 l384 0 0 629 c0
494 -3 630 -12 634 -10 4 -10 6 0 6 23 2 12 55 -18 85 -26 25 -30 37 -30 82 0
43 5 57 29 83 26 28 27 31 9 31 -15 0 -18 3 -10 13 16 20 25 77 12 77 -6 0 -8
5 -5 10 11 18 -5 32 -21 19 -17 -14 -29 -6 -19 11 4 7 20 10 36 8 26 -4 29 -2
29 24 0 26 -3 28 -38 28 -54 0 -87 -35 -79 -85 3 -21 2 -33 -4 -30 -17 11 -10
91 10 109 27 24 81 38 98 25 10 -9 13 -6 13 15 l0 26 -284 0 c-179 0 -287 -4
-291 -10 -3 -5 -11 -10 -16 -10 -6 0 -7 5 -4 10 3 6 -1 10 -9 10 -9 0 -16 -4
-16 -10 0 -5 -6 -10 -14 -10 -8 0 -16 -6 -19 -12 -4 -10 -7 -10 -18 0 -9 9
-10 12 -1 12 7 0 12 5 12 11 0 14 -143 10 -152 -5 -6 -8 -11 -7 -17 2 -7 11
-9 11 -14 -2 -4 -9 -11 -16 -18 -16 -6 0 -9 7 -5 15 4 10 -1 15 -14 15 -11 0
-19 -6 -17 -12 1 -9 -13 -13 -43 -14 -25 0 -56 -4 -70 -8 -21 -6 -22 -5 -7 4
21 13 22 30 2 30 -8 0 -22 -11 -31 -25 -11 -16 -26 -25 -43 -25 l-26 0 30 25
c23 19 26 24 13 25 -10 0 -18 -4 -18 -10z m310 -30 c0 -5 -8 -10 -17 -10 -15
0 -16 2 -3 10 19 12 20 12 20 0z m190 -60 c0 -5 -5 -10 -11 -10 -5 0 -7 5 -4
10 3 6 8 10 11 10 2 0 4 -4 4 -10z m185 -60 c11 18 147 12 172 -8 22 -16 20
-17 -70 -14 -107 3 -137 8 -137 23 0 8 4 8 14 0 10 -8 16 -9 21 -1z m203 -72
c10 -10 15 -10 22 1 7 12 12 12 23 3 7 -7 17 -9 20 -5 4 3 14 0 23 -8 15 -12
14 -14 -3 -20 -16 -7 -16 -8 -1 -8 18 -1 42 32 31 43 -3 3 -2 6 4 6 20 0 24
-33 7 -51 -22 -25 -61 -24 -74 1 -6 11 -18 20 -28 20 -22 1 -72 29 -51 30 8 0
21 -6 27 -12z m182 -278 c0 -5 -5 -10 -11 -10 -5 0 -7 5 -4 10 3 6 8 10 11 10
2 0 4 -4 4 -10z m-883 -262 c-3 -8 -6 -5 -6 6 -1 11 2 17 5 13 3 -3 4 -12 1
-19z m90 -54 c-3 -3 -12 -4 -19 -1 -8 3 -5 6 6 6 11 1 17 -2 13 -5z m-852 -64
c3 -5 1 -10 -4 -10 -6 0 -11 -11 -11 -25 0 -14 -4 -25 -9 -25 -17 0 -21 18
-11 44 10 27 24 33 35 16z m532 -3 c7 0 10 -4 7 -9 -3 -4 2 -11 10 -14 26 -10
18 -24 -14 -24 -19 0 -33 7 -40 19 -15 30 -13 44 8 36 9 -4 22 -8 29 -8z m661
-25 c2 -7 -2 -10 -12 -6 -9 3 -16 11 -16 16 0 13 23 5 28 -10z m-414 -14 c-3
-13 -13 -31 -22 -41 -22 -25 -4 -39 57 -45 48 -4 53 -3 84 32 33 36 34 36 52
16 18 -19 17 -20 -30 -41 -36 -16 -67 -21 -123 -21 -93 1 -108 7 -116 39 -9
32 0 41 25 25 24 -16 33 -11 49 28 14 35 35 41 24 8z m-424 -12 c0 -9 -9 -14
-20 -13 -20 1 -25 9 -13 20 12 12 33 7 33 -7z m846 -112 c-6 -23 -95 -134
-108 -134 -16 0 -7 39 12 53 44 31 78 87 86 144 l9 58 3 -49 c2 -27 1 -60 -2
-72z m-722 70 c25 -25 19 -41 -20 -48 -19 -4 -43 -10 -52 -13 -9 -3 -2 8 16
25 17 17 32 36 32 41 0 15 6 14 24 -5z m104 -1 c-10 -2 -26 -2 -35 0 -10 3 -2
5 17 5 19 0 27 -2 18 -5z m228 -21 c-9 -9 -37 8 -31 18 5 8 11 7 21 -1 8 -6
12 -14 10 -17z m-495 -1 c13 -10 31 -21 39 -24 11 -4 9 -6 -5 -6 -36 -1 -63
11 -68 30 -6 24 4 24 34 0z m79 -6 c0 -3 -9 -5 -20 -5 -11 0 -20 7 -20 15 0
13 4 14 20 5 11 -6 20 -13 20 -15z m600 -5 c-9 -16 -8 -18 5 -14 24 10 19 -82
-10 -173 -28 -89 -67 -142 -152 -204 -60 -45 -207 -119 -236 -119 -26 0 -225
179 -264 237 -30 46 -63 128 -63 158 0 7 6 15 13 18 9 3 7 9 -5 24 -10 11 -18
22 -18 25 0 2 28 1 62 -4 38 -5 83 -4 117 2 37 7 57 7 61 0 4 -6 12 1 20 15
19 36 46 32 69 -12 16 -30 39 -29 47 2 5 19 10 23 23 16 18 -9 81 -15 156 -16
36 0 68 9 115 32 36 17 66 32 68 32 1 1 -2 -8 -8 -19z m-930 -29 c0 -5 -7 -11
-15 -15 -15 -5 -20 5 -8 17 9 10 23 9 23 -2z m560 -17 c0 -8 -5 -12 -10 -9 -6
4 -8 11 -5 16 9 14 15 11 15 -7z m-470 -106 c0 -4 -9 -9 -19 -13 -30 -9 -46
-32 -32 -48 8 -10 7 -19 -5 -33 -15 -18 -15 -18 -9 4 8 29 -6 28 -33 -3 -12
-14 -28 -25 -37 -25 -8 0 -19 -9 -25 -21 -14 -25 -24 -18 -15 10 4 14 15 21
30 21 13 0 27 5 31 11 5 8 -2 10 -21 6 l-29 -5 24 18 c14 10 28 18 33 17 5 -1
14 7 20 17 21 35 42 51 65 51 12 0 22 -3 22 -7z m14 -36 c-6 -4 -13 -15 -17
-25 -4 -10 -11 -15 -17 -12 -16 10 -12 33 8 38 28 8 38 7 26 -1z m-14 -66 c0
-3 -4 -8 -10 -11 -5 -3 -10 -1 -10 4 0 6 5 11 10 11 6 0 10 -2 10 -4z m35 -15
c3 -5 1 -12 -5 -16 -5 -3 -10 1 -10 9 0 18 6 21 15 7z m-125 -11 c0 -5 -5 -10
-11 -10 -5 0 -7 5 -4 10 3 6 8 10 11 10 2 0 4 -4 4 -10z m-37 -38 c-4 -9 -14
-23 -22 -29 -11 -9 -12 -15 -5 -20 7 -6 7 -15 -2 -31 -13 -25 -30 -13 -20 13
3 8 3 15 0 15 -2 0 -9 -12 -15 -26 -5 -15 -12 -24 -15 -21 -7 7 34 87 46 87 5
0 12 9 15 20 4 11 10 18 15 15 5 -3 6 -13 3 -23z m994 -4 c-3 -7 -5 -2 -5 12
0 14 2 19 5 13 2 -7 2 -19 0 -25z m-949 -3 c-5 -22 -2 -25 23 -25 44 0 34 -17
-10 -18 l-40 -2 10 33 c5 17 9 33 9 34 0 2 3 3 6 3 4 0 4 -11 2 -25z m84 -7
c-7 -7 -12 -8 -12 -2 0 14 12 26 19 19 2 -3 -1 -11 -7 -17z m84 -10 c-15 -18
-29 -41 -32 -50 -3 -9 -13 -19 -21 -22 -21 -8 -6 35 19 53 11 7 17 19 14 26
-5 14 7 23 33 24 9 1 4 -11 -13 -31z m-41 12 c3 -5 1 -10 -4 -10 -6 0 -11 5
-11 10 0 6 2 10 4 10 3 0 8 -4 11 -10z m65 -64 c0 -14 -61 -59 -98 -70 -17 -6
-21 -4 -16 8 3 9 10 13 15 10 10 -6 69 32 82 53 10 17 17 17 17 -1z m-180 0
c0 -2 -12 -12 -27 -21 l-28 -18 19 21 c17 20 36 29 36 18z m60 -16 c-6 -11
-15 -20 -20 -20 -14 0 -12 6 6 24 21 22 27 20 14 -4z m190 0 c0 -5 -5 -10 -11
-10 -5 0 -7 5 -4 10 3 6 8 10 11 10 2 0 4 -4 4 -10z m-264 -47 c-10 -10 -19 5
-10 18 6 11 8 11 12 0 2 -7 1 -15 -2 -18z m374 23 c0 -11 -19 -15 -25 -6 -3 5
1 10 9 10 9 0 16 -2 16 -4z m-459 -37 c-26 -21 -41 -24 -41 -9 0 6 6 10 14 10
7 0 19 7 26 15 7 9 16 13 19 9 3 -3 -5 -14 -18 -25z m284 1 c-10 -11 -20 -18
-23 -15 -3 3 3 14 13 25 10 11 20 18 23 15 3 -3 -3 -14 -13 -25z m-359 -6
c-11 -7 -22 -12 -25 -9 -2 3 4 12 15 19 10 8 21 12 24 9 3 -2 -4 -11 -14 -19z
m122 -4 c-2 -16 0 -31 5 -33 5 -1 1 -9 -9 -17 -16 -13 -17 -13 -12 1 4 9 2 21
-4 27 -6 6 -5 17 4 31 17 28 21 27 16 -9z m87 0 c-10 -11 -20 -18 -23 -15 -7
6 18 35 31 35 5 0 2 -9 -8 -20z m75 -20 c0 -5 -7 -10 -16 -10 -8 0 -12 5 -9
10 3 6 10 10 16 10 5 0 9 -4 9 -10z m-208 -34 c-15 -29 -42 -39 -42 -15 0 14
33 49 47 49 9 0 8 -9 -5 -34z m138 14 c-6 -11 -18 -20 -27 -20 -9 0 -22 -8
-29 -17 -7 -10 -16 -15 -20 -11 -10 11 26 48 47 48 10 0 21 5 24 10 12 19 16
10 5 -10z m120 16 c0 -3 -4 -8 -10 -11 -5 -3 -10 -1 -10 4 0 6 5 11 10 11 6 0
10 -2 10 -4z m25 -56 c-3 -5 -11 -10 -16 -10 -6 0 -7 5 -4 10 3 6 11 10 16 10
6 0 7 -4 4 -10z m-55 -25 c-7 -8 -20 -15 -29 -15 -12 0 -10 5 9 20 28 21 39
18 20 -5z m-203 -5 c-14 -11 -29 -20 -34 -20 -10 1 39 39 51 40 5 0 -3 -9 -17
-20z m16 -40 c-10 -17 -19 -26 -21 -20 -4 10 25 50 35 50 2 0 -4 -14 -14 -30z
m583 -28 c-11 -10 -15 4 -8 28 l7 25 3 -23 c2 -13 1 -26 -2 -30z m-546 14 c0
-3 -4 -8 -10 -11 -5 -3 -10 -1 -10 4 0 6 5 11 10 11 6 0 10 -2 10 -4z m32 -28
c-7 -7 -12 -8 -12 -2 0 14 12 26 19 19 2 -3 -1 -11 -7 -17z m78 7 c-7 -9 -15
-13 -17 -11 -7 7 7 26 19 26 6 0 6 -6 -2 -15z m-239 -48 c-16 -16 -25 -1 -10
16 8 8 16 11 18 5 2 -5 -2 -15 -8 -21z m139 4 c0 -12 -29 -35 -36 -28 -7 6 17
36 29 37 4 0 7 -4 7 -9z"/>
<path d="M630 608 c0 -21 50 -75 56 -60 3 6 12 12 20 12 8 0 14 5 14 10 0 6
-11 10 -25 10 -14 0 -30 9 -37 20 -14 23 -28 26 -28 8z"/>
<path d="M640 480 c0 -5 7 -10 16 -10 8 0 12 5 9 10 -3 6 -10 10 -16 10 -5 0
-9 -4 -9 -10z"/>
<path d="M842 483 c-6 -2 -10 -8 -7 -13 6 -10 45 -1 45 11 0 10 -17 11 -38 2z"/>
<path d="M698 463 c6 -2 18 -2 25 0 6 3 1 5 -13 5 -14 0 -19 -2 -12 -5z"/>
<path d="M778 463 c7 -3 16 -2 19 1 4 3 -2 6 -13 5 -11 0 -14 -3 -6 -6z"/>
<path d="M713 413 c9 -2 25 -2 35 0 9 3 1 5 -18 5 -19 0 -27 -2 -17 -5z"/>
<path d="M870 1790 c0 -5 5 -10 10 -10 6 0 10 5 10 10 0 6 -4 10 -10 10 -5 0
-10 -4 -10 -10z"/>
<path d="M355 1760 c-10 -11 -13 -20 -7 -20 6 0 16 9 22 20 6 11 9 20 7 20 -2
0 -12 -9 -22 -20z"/>
<path d="M400 1745 c-13 -14 -29 -25 -36 -25 -7 0 -16 -4 -19 -10 -12 -19 22
-10 47 13 14 12 34 27 44 34 15 10 16 12 3 12 -8 1 -26 -10 -39 -24z"/>
<path d="M193 1723 c-31 -21 -29 -34 2 -20 14 7 25 18 25 25 0 15 0 15 -27 -5z"/>
<path d="M267 1703 c-10 -9 -9 -23 2 -23 5 0 11 7 15 15 5 15 -5 20 -17 8z"/>
<path d="M300 1650 c0 -5 5 -10 10 -10 6 0 10 5 10 10 0 6 -4 10 -10 10 -5 0
-10 -4 -10 -10z"/>
<path d="M70 1626 c0 -9 7 -16 16 -16 9 0 14 5 12 12 -6 18 -28 21 -28 4z"/>
<path d="M109 1618 c-5 -10 -19 -18 -29 -18 -25 0 -27 -20 -2 -21 72 -4 158 3
171 15 9 7 25 16 35 20 32 11 12 16 -79 19 -74 2 -88 -1 -96 -15z"/>
<path d="M0 1600 c0 -11 7 -20 15 -20 17 0 18 2 9 24 -9 23 -24 20 -24 -4z"/>
<path d="M30 1535 c-5 -14 -14 -25 -20 -25 -5 0 -10 -4 -10 -10 0 -11 30 -13
54 -4 9 3 16 10 16 16 0 5 -5 6 -11 2 -8 -5 -10 1 -7 20 7 33 -9 34 -22 1z"/>
<path d="M163 1537 c-38 -14 -60 -34 -49 -44 4 -4 12 0 17 10 6 9 18 17 28 17
10 0 24 7 31 15 14 17 15 17 -27 2z"/>
<path d="M1780 1491 c-9 -24 -9 -34 4 -58 l15 -28 1 58 c0 31 -2 57 -4 57 -2
0 -9 -13 -16 -29z"/>
<path d="M90 1455 c0 -8 2 -15 4 -15 2 0 6 7 10 15 3 8 1 15 -4 15 -6 0 -10
-7 -10 -15z"/>
<path d="M1750 1421 c0 -20 39 -75 48 -67 7 7 -30 86 -40 86 -5 0 -8 -8 -8
-19z"/>
<path d="M0 1304 c0 -8 5 -12 10 -9 6 3 10 10 10 16 0 5 -4 9 -10 9 -5 0 -10
-7 -10 -16z"/>
<path d="M89 1223 c-13 -15 -12 -15 9 -4 23 12 28 21 13 21 -5 0 -15 -7 -22
-17z"/>
<path d="M31 1201 c-1 -8 -8 -23 -18 -33 -9 -10 -11 -18 -5 -18 15 0 35 38 28
53 -3 8 -5 7 -5 -2z"/>
<path d="M60 1170 c0 -5 5 -10 10 -10 6 0 10 5 10 10 0 6 -4 10 -10 10 -5 0
-10 -4 -10 -10z"/>
<path d="M16 1081 c-10 -11 -16 -26 -14 -33 3 -8 11 -2 23 15 21 33 15 45 -9
18z"/>
<path d="M55 1070 c-10 -11 -15 -20 -11 -20 14 0 46 21 46 30 0 16 -16 11 -35
-10z"/>
<path d="M96 1031 c-19 -7 -19 -8 1 -13 14 -4 24 0 27 8 6 15 1 16 -28 5z"/>
<path d="M0 882 c0 -4 9 -8 20 -8 11 0 20 4 20 8 0 4 -9 8 -20 8 -11 0 -20 -4
-20 -8z"/>
<path d="M10 840 c-13 -8 -13 -10 2 -10 9 0 20 5 23 10 8 13 -5 13 -25 0z"/>
<path d="M39 664 c-12 -15 -11 -16 11 -9 35 10 49 25 23 25 -11 0 -27 -7 -34
-16z"/>
<path d="M105 659 c-4 -6 -5 -13 -2 -16 7 -7 27 6 27 18 0 12 -17 12 -25 -2z"/>
<path d="M160 635 c0 -9 6 -12 15 -9 8 4 15 10 15 15 0 5 -7 9 -15 9 -8 0 -15
-7 -15 -15z"/>
<path d="M50 609 c0 -5 5 -7 10 -4 6 3 10 8 10 11 0 2 -4 4 -10 4 -5 0 -10 -5
-10 -11z"/>
<path d="M0 600 c0 -5 5 -10 10 -10 6 0 10 5 10 10 0 6 -4 10 -10 10 -5 0 -10
-4 -10 -10z"/>
<path d="M40 563 c-46 -15 -46 -15 -25 -23 17 -7 17 -9 3 -9 -23 -1 -23 -18
-1 -23 16 -3 16 -4 0 -20 -24 -23 -21 -41 3 -21 11 10 20 23 20 30 0 7 5 13
11 13 20 0 39 33 27 47 -11 14 -14 14 -38 6z m20 -23 c0 -5 -4 -10 -10 -10 -5
0 -10 5 -10 10 0 6 5 10 10 10 6 0 10 -4 10 -10z"/>
</g>
</svg>
